<?xml version="1.0" encoding="utf-8" standalone="no"?>
<!DOCTYPE svg PUBLIC "-//W3C//DTD SVG 1.1//EN"
  "http://www.w3.org/Graphics/SVG/1.1/DTD/svg11.dtd">
<svg xmlns:xlink="http://www.w3.org/1999/xlink" width="567.516875pt" height="638.331875pt" viewBox="0 0 567.516875 638.331875" xmlns="http://www.w3.org/2000/svg" version="1.1">
 <metadata>
  <rdf:RDF xmlns:dc="http://purl.org/dc/elements/1.1/" xmlns:cc="http://creativecommons.org/ns#" xmlns:rdf="http://www.w3.org/1999/02/22-rdf-syntax-ns#">
   <cc:Work>
    <dc:type rdf:resource="http://purl.org/dc/dcmitype/StillImage"/>
    <dc:date>2026-03-18T10:34:16.210927</dc:date>
    <dc:format>image/svg+xml</dc:format>
    <dc:creator>
     <cc:Agent>
      <dc:title>Matplotlib v3.10.8, https://matplotlib.org/</dc:title>
     </cc:Agent>
    </dc:creator>
   </cc:Work>
  </rdf:RDF>
 </metadata>
 <defs>
  <style type="text/css">*{stroke-linejoin: round; stroke-linecap: butt}</style>
 </defs>
 <g id="figure_1">
  <g id="patch_1">
   <path d="M 0 638.331875 
L 567.516875 638.331875 
L 567.516875 0 
L 0 0 
z
" style="fill: #ffffff"/>
  </g>
  <g id="axes_1">
   <g id="patch_2">
    <path d="M 45.716875 278.26 
L 560.316875 278.26 
L 560.316875 7.2 
L 45.716875 7.2 
z
" style="fill: #ffffff"/>
   </g>
   <g id="matplotlib.axis_1">
    <g id="xtick_1">
     <g id="line2d_1">
      <path d="M 69.107784 278.26 
L 69.107784 7.2 
" clip-path="url(#pe5d993ed63)" style="fill: none; stroke: #b0b0b0; stroke-opacity: 0.3; stroke-width: 0.8; stroke-linecap: square"/>
     </g>
     <g id="line2d_2">
      <defs>
       <path id="m75f676b190" d="M 0 0 
L 0 3.5 
" style="stroke: #000000; stroke-width: 0.8"/>
      </defs>
      <g>
       <use xlink:href="#m75f676b190" x="69.107784" y="278.26" style="stroke: #000000; stroke-width: 0.8"/>
      </g>
     </g>
     <g id="text_1">
      <!-- $0$ -->
      <g transform="translate(65.907784 292.858437) scale(0.1 -0.1)">
       <defs>
        <path id="DejaVuSans-30" d="M 2034 4250 
Q 1547 4250 1301 3770 
Q 1056 3291 1056 2328 
Q 1056 1369 1301 889 
Q 1547 409 2034 409 
Q 2525 409 2770 889 
Q 3016 1369 3016 2328 
Q 3016 3291 2770 3770 
Q 2525 4250 2034 4250 
z
M 2034 4750 
Q 2819 4750 3233 4129 
Q 3647 3509 3647 2328 
Q 3647 1150 3233 529 
Q 2819 -91 2034 -91 
Q 1250 -91 836 529 
Q 422 1150 422 2328 
Q 422 3509 836 4129 
Q 1250 4750 2034 4750 
z
" transform="scale(0.015625)"/>
       </defs>
       <use xlink:href="#DejaVuSans-30" transform="translate(0 0.78125)"/>
      </g>
     </g>
    </g>
    <g id="xtick_2">
     <g id="line2d_3">
      <path d="M 186.06233 278.26 
L 186.06233 7.2 
" clip-path="url(#pe5d993ed63)" style="fill: none; stroke: #b0b0b0; stroke-opacity: 0.3; stroke-width: 0.8; stroke-linecap: square"/>
     </g>
     <g id="line2d_4">
      <g>
       <use xlink:href="#m75f676b190" x="186.06233" y="278.26" style="stroke: #000000; stroke-width: 0.8"/>
      </g>
     </g>
     <g id="text_2">
      <!-- $T/4$ -->
      <g transform="translate(178.11233 292.858437) scale(0.1 -0.1)">
       <defs>
        <path id="DejaVuSans-Oblique-54" d="M 378 4666 
L 4325 4666 
L 4225 4134 
L 2559 4134 
L 1759 0 
L 1125 0 
L 1925 4134 
L 275 4134 
L 378 4666 
z
" transform="scale(0.015625)"/>
        <path id="DejaVuSans-2f" d="M 1625 4666 
L 2156 4666 
L 531 -594 
L 0 -594 
L 1625 4666 
z
" transform="scale(0.015625)"/>
        <path id="DejaVuSans-34" d="M 2419 4116 
L 825 1625 
L 2419 1625 
L 2419 4116 
z
M 2253 4666 
L 3047 4666 
L 3047 1625 
L 3713 1625 
L 3713 1100 
L 3047 1100 
L 3047 0 
L 2419 0 
L 2419 1100 
L 313 1100 
L 313 1709 
L 2253 4666 
z
" transform="scale(0.015625)"/>
       </defs>
       <use xlink:href="#DejaVuSans-Oblique-54" transform="translate(0 0.09375)"/>
       <use xlink:href="#DejaVuSans-2f" transform="translate(61.083984 0.09375)"/>
       <use xlink:href="#DejaVuSans-34" transform="translate(94.775391 0.09375)"/>
      </g>
     </g>
    </g>
    <g id="xtick_3">
     <g id="line2d_5">
      <path d="M 303.016875 278.26 
L 303.016875 7.2 
" clip-path="url(#pe5d993ed63)" style="fill: none; stroke: #b0b0b0; stroke-opacity: 0.3; stroke-width: 0.8; stroke-linecap: square"/>
     </g>
     <g id="line2d_6">
      <g>
       <use xlink:href="#m75f676b190" x="303.016875" y="278.26" style="stroke: #000000; stroke-width: 0.8"/>
      </g>
     </g>
     <g id="text_3">
      <!-- $T/2$ -->
      <g transform="translate(295.266875 292.858437) scale(0.1 -0.1)">
       <defs>
        <path id="DejaVuSans-32" d="M 1228 531 
L 3431 531 
L 3431 0 
L 469 0 
L 469 531 
Q 828 903 1448 1529 
Q 2069 2156 2228 2338 
Q 2531 2678 2651 2914 
Q 2772 3150 2772 3378 
Q 2772 3750 2511 3984 
Q 2250 4219 1831 4219 
Q 1534 4219 1204 4116 
Q 875 4013 500 3803 
L 500 4441 
Q 881 4594 1212 4672 
Q 1544 4750 1819 4750 
Q 2544 4750 2975 4387 
Q 3406 4025 3406 3419 
Q 3406 3131 3298 2873 
Q 3191 2616 2906 2266 
Q 2828 2175 2409 1742 
Q 1991 1309 1228 531 
z
" transform="scale(0.015625)"/>
       </defs>
       <use xlink:href="#DejaVuSans-Oblique-54" transform="translate(0 0.78125)"/>
       <use xlink:href="#DejaVuSans-2f" transform="translate(61.083984 0.78125)"/>
       <use xlink:href="#DejaVuSans-32" transform="translate(91.150391 0.78125)"/>
      </g>
     </g>
    </g>
    <g id="xtick_4">
     <g id="line2d_7">
      <path d="M 419.97142 278.26 
L 419.97142 7.2 
" clip-path="url(#pe5d993ed63)" style="fill: none; stroke: #b0b0b0; stroke-opacity: 0.3; stroke-width: 0.8; stroke-linecap: square"/>
     </g>
     <g id="line2d_8">
      <g>
       <use xlink:href="#m75f676b190" x="419.97142" y="278.26" style="stroke: #000000; stroke-width: 0.8"/>
      </g>
     </g>
     <g id="text_4">
      <!-- $3T/4$ -->
      <g transform="translate(408.82142 292.858437) scale(0.1 -0.1)">
       <defs>
        <path id="DejaVuSans-33" d="M 2597 2516 
Q 3050 2419 3304 2112 
Q 3559 1806 3559 1356 
Q 3559 666 3084 287 
Q 2609 -91 1734 -91 
Q 1441 -91 1130 -33 
Q 819 25 488 141 
L 488 750 
Q 750 597 1062 519 
Q 1375 441 1716 441 
Q 2309 441 2620 675 
Q 2931 909 2931 1356 
Q 2931 1769 2642 2001 
Q 2353 2234 1838 2234 
L 1294 2234 
L 1294 2753 
L 1863 2753 
Q 2328 2753 2575 2939 
Q 2822 3125 2822 3475 
Q 2822 3834 2567 4026 
Q 2313 4219 1838 4219 
Q 1578 4219 1281 4162 
Q 984 4106 628 3988 
L 628 4550 
Q 988 4650 1302 4700 
Q 1616 4750 1894 4750 
Q 2613 4750 3031 4423 
Q 3450 4097 3450 3541 
Q 3450 3153 3228 2886 
Q 3006 2619 2597 2516 
z
" transform="scale(0.015625)"/>
       </defs>
       <use xlink:href="#DejaVuSans-33" transform="translate(0 0.78125)"/>
       <use xlink:href="#DejaVuSans-Oblique-54" transform="translate(63.623047 0.78125)"/>
       <use xlink:href="#DejaVuSans-2f" transform="translate(124.707031 0.78125)"/>
       <use xlink:href="#DejaVuSans-34" transform="translate(158.398438 0.78125)"/>
      </g>
     </g>
    </g>
    <g id="xtick_5">
     <g id="line2d_9">
      <path d="M 536.925966 278.26 
L 536.925966 7.2 
" clip-path="url(#pe5d993ed63)" style="fill: none; stroke: #b0b0b0; stroke-opacity: 0.3; stroke-width: 0.8; stroke-linecap: square"/>
     </g>
     <g id="line2d_10">
      <g>
       <use xlink:href="#m75f676b190" x="536.925966" y="278.26" style="stroke: #000000; stroke-width: 0.8"/>
      </g>
     </g>
     <g id="text_5">
      <!-- $T$ -->
      <g transform="translate(533.825966 292.858437) scale(0.1 -0.1)">
       <use xlink:href="#DejaVuSans-Oblique-54" transform="translate(0 0.09375)"/>
      </g>
     </g>
    </g>
    <g id="text_6">
     <!-- $t$ -->
     <g transform="translate(300.616875 308.05625) scale(0.12 -0.12)">
      <defs>
       <path id="DejaVuSans-Oblique-74" d="M 2706 3500 
L 2619 3053 
L 1472 3053 
L 1100 1153 
Q 1081 1047 1072 975 
Q 1063 903 1063 863 
Q 1063 663 1183 572 
Q 1303 481 1569 481 
L 2150 481 
L 2053 0 
L 1503 0 
Q 991 0 739 200 
Q 488 400 488 806 
Q 488 878 497 964 
Q 506 1050 525 1153 
L 897 3053 
L 409 3053 
L 500 3500 
L 978 3500 
L 1172 4494 
L 1747 4494 
L 1556 3500 
L 2706 3500 
z
" transform="scale(0.015625)"/>
      </defs>
      <use xlink:href="#DejaVuSans-Oblique-74" transform="translate(0 0.78125)"/>
     </g>
    </g>
   </g>
   <g id="matplotlib.axis_2">
    <g id="ytick_1">
     <g id="line2d_11">
      <path d="M 45.716875 246.983846 
L 560.316875 246.983846 
" clip-path="url(#pe5d993ed63)" style="fill: none; stroke: #b0b0b0; stroke-opacity: 0.3; stroke-width: 0.8; stroke-linecap: square"/>
     </g>
     <g id="line2d_12">
      <defs>
       <path id="m51634e80c7" d="M 0 0 
L -3.5 0 
" style="stroke: #000000; stroke-width: 0.8"/>
      </defs>
      <g>
       <use xlink:href="#m51634e80c7" x="45.716875" y="246.983846" style="stroke: #000000; stroke-width: 0.8"/>
      </g>
     </g>
     <g id="text_7">
      <!-- −1.0 -->
      <g transform="translate(14.434062 250.783065) scale(0.1 -0.1)">
       <defs>
        <path id="DejaVuSans-2212" d="M 678 2272 
L 4684 2272 
L 4684 1741 
L 678 1741 
L 678 2272 
z
" transform="scale(0.015625)"/>
        <path id="DejaVuSans-31" d="M 794 531 
L 1825 531 
L 1825 4091 
L 703 3866 
L 703 4441 
L 1819 4666 
L 2450 4666 
L 2450 531 
L 3481 531 
L 3481 0 
L 794 0 
L 794 531 
z
" transform="scale(0.015625)"/>
        <path id="DejaVuSans-2e" d="M 684 794 
L 1344 794 
L 1344 0 
L 684 0 
L 684 794 
z
" transform="scale(0.015625)"/>
       </defs>
       <use xlink:href="#DejaVuSans-2212"/>
       <use xlink:href="#DejaVuSans-31" transform="translate(83.789062 0)"/>
       <use xlink:href="#DejaVuSans-2e" transform="translate(147.412109 0)"/>
       <use xlink:href="#DejaVuSans-30" transform="translate(179.199219 0)"/>
      </g>
     </g>
    </g>
    <g id="ytick_2">
     <g id="line2d_13">
      <path d="M 45.716875 194.856923 
L 560.316875 194.856923 
" clip-path="url(#pe5d993ed63)" style="fill: none; stroke: #b0b0b0; stroke-opacity: 0.3; stroke-width: 0.8; stroke-linecap: square"/>
     </g>
     <g id="line2d_14">
      <g>
       <use xlink:href="#m51634e80c7" x="45.716875" y="194.856923" style="stroke: #000000; stroke-width: 0.8"/>
      </g>
     </g>
     <g id="text_8">
      <!-- −0.5 -->
      <g transform="translate(14.434062 198.656142) scale(0.1 -0.1)">
       <defs>
        <path id="DejaVuSans-35" d="M 691 4666 
L 3169 4666 
L 3169 4134 
L 1269 4134 
L 1269 2991 
Q 1406 3038 1543 3061 
Q 1681 3084 1819 3084 
Q 2600 3084 3056 2656 
Q 3513 2228 3513 1497 
Q 3513 744 3044 326 
Q 2575 -91 1722 -91 
Q 1428 -91 1123 -41 
Q 819 9 494 109 
L 494 744 
Q 775 591 1075 516 
Q 1375 441 1709 441 
Q 2250 441 2565 725 
Q 2881 1009 2881 1497 
Q 2881 1984 2565 2268 
Q 2250 2553 1709 2553 
Q 1456 2553 1204 2497 
Q 953 2441 691 2322 
L 691 4666 
z
" transform="scale(0.015625)"/>
       </defs>
       <use xlink:href="#DejaVuSans-2212"/>
       <use xlink:href="#DejaVuSans-30" transform="translate(83.789062 0)"/>
       <use xlink:href="#DejaVuSans-2e" transform="translate(147.412109 0)"/>
       <use xlink:href="#DejaVuSans-35" transform="translate(179.199219 0)"/>
      </g>
     </g>
    </g>
    <g id="ytick_3">
     <g id="line2d_15">
      <path d="M 45.716875 142.73 
L 560.316875 142.73 
" clip-path="url(#pe5d993ed63)" style="fill: none; stroke: #b0b0b0; stroke-opacity: 0.3; stroke-width: 0.8; stroke-linecap: square"/>
     </g>
     <g id="line2d_16">
      <g>
       <use xlink:href="#m51634e80c7" x="45.716875" y="142.73" style="stroke: #000000; stroke-width: 0.8"/>
      </g>
     </g>
     <g id="text_9">
      <!-- 0.0 -->
      <g transform="translate(22.81375 146.529219) scale(0.1 -0.1)">
       <use xlink:href="#DejaVuSans-30"/>
       <use xlink:href="#DejaVuSans-2e" transform="translate(63.623047 0)"/>
       <use xlink:href="#DejaVuSans-30" transform="translate(95.410156 0)"/>
      </g>
     </g>
    </g>
    <g id="ytick_4">
     <g id="line2d_17">
      <path d="M 45.716875 90.603077 
L 560.316875 90.603077 
" clip-path="url(#pe5d993ed63)" style="fill: none; stroke: #b0b0b0; stroke-opacity: 0.3; stroke-width: 0.8; stroke-linecap: square"/>
     </g>
     <g id="line2d_18">
      <g>
       <use xlink:href="#m51634e80c7" x="45.716875" y="90.603077" style="stroke: #000000; stroke-width: 0.8"/>
      </g>
     </g>
     <g id="text_10">
      <!-- 0.5 -->
      <g transform="translate(22.81375 94.402296) scale(0.1 -0.1)">
       <use xlink:href="#DejaVuSans-30"/>
       <use xlink:href="#DejaVuSans-2e" transform="translate(63.623047 0)"/>
       <use xlink:href="#DejaVuSans-35" transform="translate(95.410156 0)"/>
      </g>
     </g>
    </g>
    <g id="ytick_5">
     <g id="line2d_19">
      <path d="M 45.716875 38.476154 
L 560.316875 38.476154 
" clip-path="url(#pe5d993ed63)" style="fill: none; stroke: #b0b0b0; stroke-opacity: 0.3; stroke-width: 0.8; stroke-linecap: square"/>
     </g>
     <g id="line2d_20">
      <g>
       <use xlink:href="#m51634e80c7" x="45.716875" y="38.476154" style="stroke: #000000; stroke-width: 0.8"/>
      </g>
     </g>
     <g id="text_11">
      <!-- 1.0 -->
      <g transform="translate(22.81375 42.275373) scale(0.1 -0.1)">
       <use xlink:href="#DejaVuSans-31"/>
       <use xlink:href="#DejaVuSans-2e" transform="translate(63.623047 0)"/>
       <use xlink:href="#DejaVuSans-30" transform="translate(95.410156 0)"/>
      </g>
     </g>
    </g>
   </g>
   <g id="line2d_21">
    <path d="M 69.107784 38.476154 
L 73.809474 38.683947 
L 78.511165 39.306498 
L 83.212855 40.341326 
L 87.914545 41.784305 
L 92.616235 43.629683 
L 97.317926 45.870104 
L 102.019616 48.496637 
L 106.721306 51.498812 
L 111.422997 54.864661 
L 116.124687 58.580767 
L 120.826377 62.632317 
L 125.528067 67.00316 
L 130.229758 71.675872 
L 134.931448 76.631826 
L 139.633138 81.851267 
L 144.334828 87.313389 
L 151.387364 95.913725 
L 158.439899 104.933788 
L 165.492435 114.292712 
L 174.895815 127.153023 
L 207.807647 172.747112 
L 214.860182 182.055313 
L 221.912718 191.010945 
L 228.965253 199.533718 
L 233.666944 204.937174 
L 238.368634 210.092655 
L 243.070324 214.979608 
L 247.772014 219.578553 
L 252.473705 223.871157 
L 257.175395 227.840309 
L 261.877085 231.470186 
L 266.578775 234.746319 
L 271.280466 237.655647 
L 275.982156 240.186574 
L 280.683846 242.329011 
L 285.385536 244.074417 
L 290.087227 245.415834 
L 294.788917 246.347916 
L 299.490607 246.866945 
L 304.192298 246.970855 
L 308.893988 246.65923 
L 313.595678 245.933312 
L 318.297368 244.795996 
L 322.999059 243.251815 
L 327.700749 241.306925 
L 332.402439 238.969077 
L 337.104129 236.247593 
L 341.80582 233.15332 
L 346.50751 229.698594 
L 351.2092 225.897184 
L 355.910891 221.764247 
L 360.612581 217.316255 
L 365.314271 212.570941 
L 370.015961 207.54722 
L 374.717652 202.265119 
L 381.770187 193.903825 
L 388.822722 185.083735 
L 395.875258 175.883926 
L 405.278638 163.169795 
L 417.032864 146.843544 
L 435.839625 120.678916 
L 445.243006 108.019867 
L 452.295541 98.877699 
L 459.348076 90.128686 
L 466.400612 81.851267 
L 471.102302 76.631826 
L 475.803992 71.675872 
L 480.505683 67.00316 
L 485.207373 62.632317 
L 489.909063 58.580767 
L 494.610753 54.864661 
L 499.312444 51.498812 
L 504.014134 48.496637 
L 508.715824 45.870104 
L 513.417515 43.629683 
L 518.119205 41.784305 
L 522.820895 40.341326 
L 527.522585 39.306498 
L 532.224276 38.683947 
L 536.925966 38.476154 
L 536.925966 38.476154 
" clip-path="url(#pe5d993ed63)" style="fill: none; stroke: #0000ff; stroke-width: 2; stroke-linecap: square"/>
   </g>
   <g id="line2d_22">
    <path d="M 69.107784 142.73 
L 85.5637 165.584693 
L 94.967081 178.215018 
L 102.019616 187.327509 
L 109.072151 196.040164 
L 116.124687 204.274871 
L 120.826377 209.462493 
L 125.528067 214.3841 
L 130.229758 219.020073 
L 134.931448 223.351932 
L 139.633138 227.362407 
L 144.334828 231.035513 
L 149.036519 234.356608 
L 153.738209 237.312452 
L 158.439899 239.891262 
L 163.141589 242.082759 
L 167.84328 243.878207 
L 172.54497 245.270448 
L 177.24666 246.253934 
L 181.948351 246.824742 
L 186.650041 246.980598 
L 191.351731 246.720881 
L 196.053421 246.046626 
L 200.755112 244.96052 
L 205.456802 243.466893 
L 210.158492 241.5717 
L 214.860182 239.282495 
L 219.561873 236.608403 
L 224.263563 233.560084 
L 228.965253 230.149689 
L 233.666944 226.390815 
L 238.368634 222.298443 
L 243.070324 217.888889 
L 247.772014 213.179729 
L 252.473705 208.189736 
L 257.175395 202.938801 
L 264.22793 194.619186 
L 271.280466 185.834361 
L 278.333001 176.663087 
L 287.736382 163.976102 
L 299.490607 147.665689 
L 318.297368 121.483898 
L 327.700749 108.796913 
L 334.753284 99.625639 
L 341.80582 90.840814 
L 348.858355 82.521199 
L 353.560045 77.270264 
L 358.261736 72.280271 
L 362.963426 67.571111 
L 367.665116 63.161557 
L 372.366806 59.069185 
L 377.068497 55.310311 
L 381.770187 51.899916 
L 386.471877 48.851597 
L 391.173568 46.177505 
L 395.875258 43.8883 
L 400.576948 41.993107 
L 405.278638 40.49948 
L 409.980329 39.413374 
L 414.682019 38.739119 
L 419.383709 38.479402 
L 424.085399 38.635258 
L 428.78709 39.206066 
L 433.48878 40.189552 
L 438.19047 41.581793 
L 442.892161 43.377241 
L 447.593851 45.568738 
L 452.295541 48.147548 
L 456.997231 51.103392 
L 461.698922 54.424487 
L 466.400612 58.097593 
L 471.102302 62.108068 
L 475.803992 66.439927 
L 480.505683 71.0759 
L 485.207373 75.997507 
L 489.909063 81.185129 
L 494.610753 86.618088 
L 501.663289 95.179908 
L 508.715824 104.168036 
L 515.76836 113.501889 
L 525.17174 126.339831 
L 536.925966 142.73 
L 536.925966 142.73 
" clip-path="url(#pe5d993ed63)" style="fill: none; stroke: #008000; stroke-width: 2; stroke-linecap: square"/>
   </g>
   <g id="line2d_23">
    <path d="M 69.107784 246.983846 
L 73.809474 246.776053 
L 78.511165 246.153502 
L 83.212855 245.118674 
L 87.914545 243.675695 
L 92.616235 241.830317 
L 97.317926 239.589896 
L 102.019616 236.963363 
L 106.721306 233.961188 
L 111.422997 230.595339 
L 116.124687 226.879233 
L 120.826377 222.827683 
L 125.528067 218.45684 
L 130.229758 213.784128 
L 134.931448 208.828174 
L 139.633138 203.608733 
L 144.334828 198.146611 
L 151.387364 189.546275 
L 158.439899 180.526212 
L 165.492435 171.167288 
L 174.895815 158.306977 
L 207.807647 112.712888 
L 214.860182 103.404687 
L 221.912718 94.449055 
L 228.965253 85.926282 
L 233.666944 80.522826 
L 238.368634 75.367345 
L 243.070324 70.480392 
L 247.772014 65.881447 
L 252.473705 61.588843 
L 257.175395 57.619691 
L 261.877085 53.989814 
L 266.578775 50.713681 
L 271.280466 47.804353 
L 275.982156 45.273426 
L 280.683846 43.130989 
L 285.385536 41.385583 
L 290.087227 40.044166 
L 294.788917 39.112084 
L 299.490607 38.593055 
L 304.192298 38.489145 
L 308.893988 38.80077 
L 313.595678 39.526688 
L 318.297368 40.664004 
L 322.999059 42.208185 
L 327.700749 44.153075 
L 332.402439 46.490923 
L 337.104129 49.212407 
L 341.80582 52.30668 
L 346.50751 55.761406 
L 351.2092 59.562816 
L 355.910891 63.695753 
L 360.612581 68.143745 
L 365.314271 72.889059 
L 370.015961 77.91278 
L 374.717652 83.194881 
L 381.770187 91.556175 
L 388.822722 100.376265 
L 395.875258 109.576074 
L 405.278638 122.290205 
L 417.032864 138.616456 
L 435.839625 164.781084 
L 445.243006 177.440133 
L 452.295541 186.582301 
L 459.348076 195.331314 
L 466.400612 203.608733 
L 471.102302 208.828174 
L 475.803992 213.784128 
L 480.505683 218.45684 
L 485.207373 222.827683 
L 489.909063 226.879233 
L 494.610753 230.595339 
L 499.312444 233.961188 
L 504.014134 236.963363 
L 508.715824 239.589896 
L 513.417515 241.830317 
L 518.119205 243.675695 
L 522.820895 245.118674 
L 527.522585 246.153502 
L 532.224276 246.776053 
L 536.925966 246.983846 
L 536.925966 246.983846 
" clip-path="url(#pe5d993ed63)" style="fill: none; stroke: #ff0000; stroke-width: 2; stroke-linecap: square"/>
   </g>
   <g id="line2d_24">
    <path d="M 45.716875 142.73 
L 560.316875 142.73 
" clip-path="url(#pe5d993ed63)" style="fill: none; stroke: #000000; stroke-linecap: square"/>
   </g>
   <g id="patch_3">
    <path d="M 45.716875 278.26 
L 45.716875 7.2 
" style="fill: none; stroke: #000000; stroke-width: 0.8; stroke-linejoin: miter; stroke-linecap: square"/>
   </g>
   <g id="patch_4">
    <path d="M 560.316875 278.26 
L 560.316875 7.2 
" style="fill: none; stroke: #000000; stroke-width: 0.8; stroke-linejoin: miter; stroke-linecap: square"/>
   </g>
   <g id="patch_5">
    <path d="M 45.716875 278.26 
L 560.316875 278.26 
" style="fill: none; stroke: #000000; stroke-width: 0.8; stroke-linejoin: miter; stroke-linecap: square"/>
   </g>
   <g id="patch_6">
    <path d="M 45.716875 7.2 
L 560.316875 7.2 
" style="fill: none; stroke: #000000; stroke-width: 0.8; stroke-linejoin: miter; stroke-linecap: square"/>
   </g>
   <g id="legend_1">
    <g id="patch_7">
     <path d="M 398.436875 70.6275 
L 551.916875 70.6275 
Q 554.316875 70.6275 554.316875 68.2275 
L 554.316875 15.6 
Q 554.316875 13.2 551.916875 13.2 
L 398.436875 13.2 
Q 396.036875 13.2 396.036875 15.6 
L 396.036875 68.2275 
Q 396.036875 70.6275 398.436875 70.6275 
z
" style="fill: #ffffff; opacity: 0.8; stroke: #cccccc; stroke-linejoin: miter"/>
    </g>
    <g id="line2d_25">
     <path d="M 400.836875 22.918125 
L 412.836875 22.918125 
L 424.836875 22.918125 
" style="fill: none; stroke: #0000ff; stroke-width: 2; stroke-linecap: square"/>
    </g>
    <g id="text_12">
     <!-- $x(t) = A\cos(\omega t)$ -->
     <g transform="translate(434.436875 27.118125) scale(0.12 -0.12)">
      <defs>
       <path id="DejaVuSans-Oblique-78" d="M 3841 3500 
L 2234 1784 
L 3219 0 
L 2559 0 
L 1819 1388 
L 531 0 
L -166 0 
L 1556 1844 
L 641 3500 
L 1300 3500 
L 1972 2234 
L 3144 3500 
L 3841 3500 
z
" transform="scale(0.015625)"/>
       <path id="DejaVuSans-28" d="M 1984 4856 
Q 1566 4138 1362 3434 
Q 1159 2731 1159 2009 
Q 1159 1288 1364 580 
Q 1569 -128 1984 -844 
L 1484 -844 
Q 1016 -109 783 600 
Q 550 1309 550 2009 
Q 550 2706 781 3412 
Q 1013 4119 1484 4856 
L 1984 4856 
z
" transform="scale(0.015625)"/>
       <path id="DejaVuSans-29" d="M 513 4856 
L 1013 4856 
Q 1481 4119 1714 3412 
Q 1947 2706 1947 2009 
Q 1947 1309 1714 600 
Q 1481 -109 1013 -844 
L 513 -844 
Q 928 -128 1133 580 
Q 1338 1288 1338 2009 
Q 1338 2731 1133 3434 
Q 928 4138 513 4856 
z
" transform="scale(0.015625)"/>
       <path id="DejaVuSans-3d" d="M 678 2906 
L 4684 2906 
L 4684 2381 
L 678 2381 
L 678 2906 
z
M 678 1631 
L 4684 1631 
L 4684 1100 
L 678 1100 
L 678 1631 
z
" transform="scale(0.015625)"/>
       <path id="DejaVuSans-Oblique-41" d="M 2356 4666 
L 3072 4666 
L 3938 0 
L 3278 0 
L 3084 1197 
L 984 1197 
L 325 0 
L -341 0 
L 2356 4666 
z
M 2584 4044 
L 1275 1722 
L 2988 1722 
L 2584 4044 
z
" transform="scale(0.015625)"/>
       <path id="DejaVuSans-63" d="M 3122 3366 
L 3122 2828 
Q 2878 2963 2633 3030 
Q 2388 3097 2138 3097 
Q 1578 3097 1268 2742 
Q 959 2388 959 1747 
Q 959 1106 1268 751 
Q 1578 397 2138 397 
Q 2388 397 2633 464 
Q 2878 531 3122 666 
L 3122 134 
Q 2881 22 2623 -34 
Q 2366 -91 2075 -91 
Q 1284 -91 818 406 
Q 353 903 353 1747 
Q 353 2603 823 3093 
Q 1294 3584 2113 3584 
Q 2378 3584 2631 3529 
Q 2884 3475 3122 3366 
z
" transform="scale(0.015625)"/>
       <path id="DejaVuSans-6f" d="M 1959 3097 
Q 1497 3097 1228 2736 
Q 959 2375 959 1747 
Q 959 1119 1226 758 
Q 1494 397 1959 397 
Q 2419 397 2687 759 
Q 2956 1122 2956 1747 
Q 2956 2369 2687 2733 
Q 2419 3097 1959 3097 
z
M 1959 3584 
Q 2709 3584 3137 3096 
Q 3566 2609 3566 1747 
Q 3566 888 3137 398 
Q 2709 -91 1959 -91 
Q 1206 -91 779 398 
Q 353 888 353 1747 
Q 353 2609 779 3096 
Q 1206 3584 1959 3584 
z
" transform="scale(0.015625)"/>
       <path id="DejaVuSans-73" d="M 2834 3397 
L 2834 2853 
Q 2591 2978 2328 3040 
Q 2066 3103 1784 3103 
Q 1356 3103 1142 2972 
Q 928 2841 928 2578 
Q 928 2378 1081 2264 
Q 1234 2150 1697 2047 
L 1894 2003 
Q 2506 1872 2764 1633 
Q 3022 1394 3022 966 
Q 3022 478 2636 193 
Q 2250 -91 1575 -91 
Q 1294 -91 989 -36 
Q 684 19 347 128 
L 347 722 
Q 666 556 975 473 
Q 1284 391 1588 391 
Q 1994 391 2212 530 
Q 2431 669 2431 922 
Q 2431 1156 2273 1281 
Q 2116 1406 1581 1522 
L 1381 1569 
Q 847 1681 609 1914 
Q 372 2147 372 2553 
Q 372 3047 722 3315 
Q 1072 3584 1716 3584 
Q 2034 3584 2315 3537 
Q 2597 3491 2834 3397 
z
" transform="scale(0.015625)"/>
       <path id="DejaVuSans-Oblique-3c9" d="M 1369 -91 
Q 72 -91 434 1766 
Q 575 2500 1256 3500 
L 1875 3500 
Q 1231 2500 1088 1750 
Q 819 397 1519 397 
Q 2166 397 2478 2078 
L 3009 2078 
Q 2669 388 3316 397 
Q 4013 403 4275 1750 
Q 4419 2500 4169 3500 
L 4788 3500 
Q 5075 2500 4934 1766 
Q 4578 -94 3278 -91 
Q 2428 -88 2503 844 
Q 2194 -91 1369 -91 
z
" transform="scale(0.015625)"/>
      </defs>
      <use xlink:href="#DejaVuSans-Oblique-78" transform="translate(0 0.125)"/>
      <use xlink:href="#DejaVuSans-28" transform="translate(59.179688 0.125)"/>
      <use xlink:href="#DejaVuSans-Oblique-74" transform="translate(98.193359 0.125)"/>
      <use xlink:href="#DejaVuSans-29" transform="translate(137.402344 0.125)"/>
      <use xlink:href="#DejaVuSans-3d" transform="translate(195.898438 0.125)"/>
      <use xlink:href="#DejaVuSans-Oblique-41" transform="translate(299.169922 0.125)"/>
      <use xlink:href="#DejaVuSans-63" transform="translate(367.578125 0.125)"/>
      <use xlink:href="#DejaVuSans-6f" transform="translate(422.558594 0.125)"/>
      <use xlink:href="#DejaVuSans-73" transform="translate(483.740234 0.125)"/>
      <use xlink:href="#DejaVuSans-28" transform="translate(535.839844 0.125)"/>
      <use xlink:href="#DejaVuSans-Oblique-3c9" transform="translate(574.853516 0.125)"/>
      <use xlink:href="#DejaVuSans-Oblique-74" transform="translate(658.59375 0.125)"/>
      <use xlink:href="#DejaVuSans-29" transform="translate(697.802734 0.125)"/>
     </g>
    </g>
    <g id="line2d_26">
     <path d="M 400.836875 40.531875 
L 412.836875 40.531875 
L 424.836875 40.531875 
" style="fill: none; stroke: #008000; stroke-width: 2; stroke-linecap: square"/>
    </g>
    <g id="text_13">
     <!-- $v(t) = -A\omega\sin(\omega t)$ -->
     <g transform="translate(434.436875 44.731875) scale(0.12 -0.12)">
      <defs>
       <path id="DejaVuSans-Oblique-76" d="M 459 3500 
L 1069 3500 
L 1581 525 
L 3256 3500 
L 3866 3500 
L 1875 0 
L 1100 0 
L 459 3500 
z
" transform="scale(0.015625)"/>
       <path id="DejaVuSans-69" d="M 603 3500 
L 1178 3500 
L 1178 0 
L 603 0 
L 603 3500 
z
M 603 4863 
L 1178 4863 
L 1178 4134 
L 603 4134 
L 603 4863 
z
" transform="scale(0.015625)"/>
       <path id="DejaVuSans-6e" d="M 3513 2113 
L 3513 0 
L 2938 0 
L 2938 2094 
Q 2938 2591 2744 2837 
Q 2550 3084 2163 3084 
Q 1697 3084 1428 2787 
Q 1159 2491 1159 1978 
L 1159 0 
L 581 0 
L 581 3500 
L 1159 3500 
L 1159 2956 
Q 1366 3272 1645 3428 
Q 1925 3584 2291 3584 
Q 2894 3584 3203 3211 
Q 3513 2838 3513 2113 
z
" transform="scale(0.015625)"/>
      </defs>
      <use xlink:href="#DejaVuSans-Oblique-76" transform="translate(0 0.015625)"/>
      <use xlink:href="#DejaVuSans-28" transform="translate(59.179688 0.015625)"/>
      <use xlink:href="#DejaVuSans-Oblique-74" transform="translate(98.193359 0.015625)"/>
      <use xlink:href="#DejaVuSans-29" transform="translate(137.402344 0.015625)"/>
      <use xlink:href="#DejaVuSans-3d" transform="translate(195.898438 0.015625)"/>
      <use xlink:href="#DejaVuSans-2212" transform="translate(299.169922 0.015625)"/>
      <use xlink:href="#DejaVuSans-Oblique-41" transform="translate(382.958984 0.015625)"/>
      <use xlink:href="#DejaVuSans-Oblique-3c9" transform="translate(451.367188 0.015625)"/>
      <use xlink:href="#DejaVuSans-73" transform="translate(535.107422 0.015625)"/>
      <use xlink:href="#DejaVuSans-69" transform="translate(587.207031 0.015625)"/>
      <use xlink:href="#DejaVuSans-6e" transform="translate(614.990234 0.015625)"/>
      <use xlink:href="#DejaVuSans-28" transform="translate(678.369141 0.015625)"/>
      <use xlink:href="#DejaVuSans-Oblique-3c9" transform="translate(717.382812 0.015625)"/>
      <use xlink:href="#DejaVuSans-Oblique-74" transform="translate(801.123047 0.015625)"/>
      <use xlink:href="#DejaVuSans-29" transform="translate(840.332031 0.015625)"/>
     </g>
    </g>
    <g id="line2d_27">
     <path d="M 400.836875 59.131875 
L 412.836875 59.131875 
L 424.836875 59.131875 
" style="fill: none; stroke: #ff0000; stroke-width: 2; stroke-linecap: square"/>
    </g>
    <g id="text_14">
     <!-- $a(t) = -A\omega^2\cos(\omega t)$ -->
     <g transform="translate(434.436875 63.331875) scale(0.12 -0.12)">
      <defs>
       <path id="DejaVuSans-Oblique-61" d="M 3438 1997 
L 3047 0 
L 2472 0 
L 2578 531 
Q 2325 219 2001 64 
Q 1678 -91 1281 -91 
Q 834 -91 548 182 
Q 263 456 263 884 
Q 263 1497 752 1853 
Q 1241 2209 2100 2209 
L 2900 2209 
L 2931 2363 
Q 2938 2388 2941 2417 
Q 2944 2447 2944 2509 
Q 2944 2788 2717 2942 
Q 2491 3097 2081 3097 
Q 1800 3097 1504 3025 
Q 1209 2953 897 2809 
L 997 3341 
Q 1322 3463 1633 3523 
Q 1944 3584 2234 3584 
Q 2853 3584 3176 3315 
Q 3500 3047 3500 2534 
Q 3500 2431 3484 2292 
Q 3469 2153 3438 1997 
z
M 2816 1759 
L 2241 1759 
Q 1534 1759 1195 1570 
Q 856 1381 856 984 
Q 856 709 1029 553 
Q 1203 397 1509 397 
Q 1978 397 2328 733 
Q 2678 1069 2791 1631 
L 2816 1759 
z
" transform="scale(0.015625)"/>
      </defs>
      <use xlink:href="#DejaVuSans-Oblique-61" transform="translate(0 0.765625)"/>
      <use xlink:href="#DejaVuSans-28" transform="translate(61.279297 0.765625)"/>
      <use xlink:href="#DejaVuSans-Oblique-74" transform="translate(100.292969 0.765625)"/>
      <use xlink:href="#DejaVuSans-29" transform="translate(139.501953 0.765625)"/>
      <use xlink:href="#DejaVuSans-3d" transform="translate(197.998047 0.765625)"/>
      <use xlink:href="#DejaVuSans-2212" transform="translate(301.269531 0.765625)"/>
      <use xlink:href="#DejaVuSans-Oblique-41" transform="translate(385.058594 0.765625)"/>
      <use xlink:href="#DejaVuSans-Oblique-3c9" transform="translate(453.466797 0.765625)"/>
      <use xlink:href="#DejaVuSans-32" transform="translate(541.673177 39.046875) scale(0.7)"/>
      <use xlink:href="#DejaVuSans-63" transform="translate(588.943685 0.765625)"/>
      <use xlink:href="#DejaVuSans-6f" transform="translate(643.924154 0.765625)"/>
      <use xlink:href="#DejaVuSans-73" transform="translate(705.105794 0.765625)"/>
      <use xlink:href="#DejaVuSans-28" transform="translate(757.205404 0.765625)"/>
      <use xlink:href="#DejaVuSans-Oblique-3c9" transform="translate(796.219076 0.765625)"/>
      <use xlink:href="#DejaVuSans-Oblique-74" transform="translate(879.95931 0.765625)"/>
      <use xlink:href="#DejaVuSans-29" transform="translate(919.168294 0.765625)"/>
     </g>
    </g>
   </g>
  </g>
  <g id="axes_2">
   <g id="patch_8">
    <path d="M 45.716875 598.84 
L 560.316875 598.84 
L 560.316875 327.78 
L 45.716875 327.78 
z
" style="fill: #ffffff"/>
   </g>
   <g id="matplotlib.axis_3">
    <g id="xtick_6">
     <g id="line2d_28">
      <path d="M 69.107784 598.84 
L 69.107784 327.78 
" clip-path="url(#p56b384d110)" style="fill: none; stroke: #b0b0b0; stroke-opacity: 0.3; stroke-width: 0.8; stroke-linecap: square"/>
     </g>
     <g id="line2d_29">
      <g>
       <use xlink:href="#m75f676b190" x="69.107784" y="598.84" style="stroke: #000000; stroke-width: 0.8"/>
      </g>
     </g>
     <g id="text_15">
      <!-- $0$ -->
      <g transform="translate(65.907784 613.438437) scale(0.1 -0.1)">
       <use xlink:href="#DejaVuSans-30" transform="translate(0 0.78125)"/>
      </g>
     </g>
    </g>
    <g id="xtick_7">
     <g id="line2d_30">
      <path d="M 186.06233 598.84 
L 186.06233 327.78 
" clip-path="url(#p56b384d110)" style="fill: none; stroke: #b0b0b0; stroke-opacity: 0.3; stroke-width: 0.8; stroke-linecap: square"/>
     </g>
     <g id="line2d_31">
      <g>
       <use xlink:href="#m75f676b190" x="186.06233" y="598.84" style="stroke: #000000; stroke-width: 0.8"/>
      </g>
     </g>
     <g id="text_16">
      <!-- $T/4$ -->
      <g transform="translate(178.11233 613.438437) scale(0.1 -0.1)">
       <use xlink:href="#DejaVuSans-Oblique-54" transform="translate(0 0.09375)"/>
       <use xlink:href="#DejaVuSans-2f" transform="translate(61.083984 0.09375)"/>
       <use xlink:href="#DejaVuSans-34" transform="translate(94.775391 0.09375)"/>
      </g>
     </g>
    </g>
    <g id="xtick_8">
     <g id="line2d_32">
      <path d="M 303.016875 598.84 
L 303.016875 327.78 
" clip-path="url(#p56b384d110)" style="fill: none; stroke: #b0b0b0; stroke-opacity: 0.3; stroke-width: 0.8; stroke-linecap: square"/>
     </g>
     <g id="line2d_33">
      <g>
       <use xlink:href="#m75f676b190" x="303.016875" y="598.84" style="stroke: #000000; stroke-width: 0.8"/>
      </g>
     </g>
     <g id="text_17">
      <!-- $T/2$ -->
      <g transform="translate(295.266875 613.438437) scale(0.1 -0.1)">
       <use xlink:href="#DejaVuSans-Oblique-54" transform="translate(0 0.78125)"/>
       <use xlink:href="#DejaVuSans-2f" transform="translate(61.083984 0.78125)"/>
       <use xlink:href="#DejaVuSans-32" transform="translate(91.150391 0.78125)"/>
      </g>
     </g>
    </g>
    <g id="xtick_9">
     <g id="line2d_34">
      <path d="M 419.97142 598.84 
L 419.97142 327.78 
" clip-path="url(#p56b384d110)" style="fill: none; stroke: #b0b0b0; stroke-opacity: 0.3; stroke-width: 0.8; stroke-linecap: square"/>
     </g>
     <g id="line2d_35">
      <g>
       <use xlink:href="#m75f676b190" x="419.97142" y="598.84" style="stroke: #000000; stroke-width: 0.8"/>
      </g>
     </g>
     <g id="text_18">
      <!-- $3T/4$ -->
      <g transform="translate(408.82142 613.438437) scale(0.1 -0.1)">
       <use xlink:href="#DejaVuSans-33" transform="translate(0 0.78125)"/>
       <use xlink:href="#DejaVuSans-Oblique-54" transform="translate(63.623047 0.78125)"/>
       <use xlink:href="#DejaVuSans-2f" transform="translate(124.707031 0.78125)"/>
       <use xlink:href="#DejaVuSans-34" transform="translate(158.398438 0.78125)"/>
      </g>
     </g>
    </g>
    <g id="xtick_10">
     <g id="line2d_36">
      <path d="M 536.925966 598.84 
L 536.925966 327.78 
" clip-path="url(#p56b384d110)" style="fill: none; stroke: #b0b0b0; stroke-opacity: 0.3; stroke-width: 0.8; stroke-linecap: square"/>
     </g>
     <g id="line2d_37">
      <g>
       <use xlink:href="#m75f676b190" x="536.925966" y="598.84" style="stroke: #000000; stroke-width: 0.8"/>
      </g>
     </g>
     <g id="text_19">
      <!-- $T$ -->
      <g transform="translate(533.825966 613.438437) scale(0.1 -0.1)">
       <use xlink:href="#DejaVuSans-Oblique-54" transform="translate(0 0.09375)"/>
      </g>
     </g>
    </g>
    <g id="text_20">
     <!-- $t$ -->
     <g transform="translate(300.616875 628.63625) scale(0.12 -0.12)">
      <use xlink:href="#DejaVuSans-Oblique-74" transform="translate(0 0.78125)"/>
     </g>
    </g>
   </g>
   <g id="matplotlib.axis_4">
    <g id="ytick_6">
     <g id="line2d_38">
      <path d="M 45.716875 598.84 
L 560.316875 598.84 
" clip-path="url(#p56b384d110)" style="fill: none; stroke: #b0b0b0; stroke-opacity: 0.3; stroke-width: 0.8; stroke-linecap: square"/>
     </g>
     <g id="line2d_39">
      <g>
       <use xlink:href="#m51634e80c7" x="45.716875" y="598.84" style="stroke: #000000; stroke-width: 0.8"/>
      </g>
     </g>
     <g id="text_21">
      <!-- 0.0 -->
      <g transform="translate(22.81375 602.639219) scale(0.1 -0.1)">
       <use xlink:href="#DejaVuSans-30"/>
       <use xlink:href="#DejaVuSans-2e" transform="translate(63.623047 0)"/>
       <use xlink:href="#DejaVuSans-30" transform="translate(95.410156 0)"/>
      </g>
     </g>
    </g>
    <g id="ytick_7">
     <g id="line2d_40">
      <path d="M 45.716875 553.663333 
L 560.316875 553.663333 
" clip-path="url(#p56b384d110)" style="fill: none; stroke: #b0b0b0; stroke-opacity: 0.3; stroke-width: 0.8; stroke-linecap: square"/>
     </g>
     <g id="line2d_41">
      <g>
       <use xlink:href="#m51634e80c7" x="45.716875" y="553.663333" style="stroke: #000000; stroke-width: 0.8"/>
      </g>
     </g>
     <g id="text_22">
      <!-- 0.1 -->
      <g transform="translate(22.81375 557.462552) scale(0.1 -0.1)">
       <use xlink:href="#DejaVuSans-30"/>
       <use xlink:href="#DejaVuSans-2e" transform="translate(63.623047 0)"/>
       <use xlink:href="#DejaVuSans-31" transform="translate(95.410156 0)"/>
      </g>
     </g>
    </g>
    <g id="ytick_8">
     <g id="line2d_42">
      <path d="M 45.716875 508.486667 
L 560.316875 508.486667 
" clip-path="url(#p56b384d110)" style="fill: none; stroke: #b0b0b0; stroke-opacity: 0.3; stroke-width: 0.8; stroke-linecap: square"/>
     </g>
     <g id="line2d_43">
      <g>
       <use xlink:href="#m51634e80c7" x="45.716875" y="508.486667" style="stroke: #000000; stroke-width: 0.8"/>
      </g>
     </g>
     <g id="text_23">
      <!-- 0.2 -->
      <g transform="translate(22.81375 512.285885) scale(0.1 -0.1)">
       <use xlink:href="#DejaVuSans-30"/>
       <use xlink:href="#DejaVuSans-2e" transform="translate(63.623047 0)"/>
       <use xlink:href="#DejaVuSans-32" transform="translate(95.410156 0)"/>
      </g>
     </g>
    </g>
    <g id="ytick_9">
     <g id="line2d_44">
      <path d="M 45.716875 463.31 
L 560.316875 463.31 
" clip-path="url(#p56b384d110)" style="fill: none; stroke: #b0b0b0; stroke-opacity: 0.3; stroke-width: 0.8; stroke-linecap: square"/>
     </g>
     <g id="line2d_45">
      <g>
       <use xlink:href="#m51634e80c7" x="45.716875" y="463.31" style="stroke: #000000; stroke-width: 0.8"/>
      </g>
     </g>
     <g id="text_24">
      <!-- 0.3 -->
      <g transform="translate(22.81375 467.109219) scale(0.1 -0.1)">
       <use xlink:href="#DejaVuSans-30"/>
       <use xlink:href="#DejaVuSans-2e" transform="translate(63.623047 0)"/>
       <use xlink:href="#DejaVuSans-33" transform="translate(95.410156 0)"/>
      </g>
     </g>
    </g>
    <g id="ytick_10">
     <g id="line2d_46">
      <path d="M 45.716875 418.133333 
L 560.316875 418.133333 
" clip-path="url(#p56b384d110)" style="fill: none; stroke: #b0b0b0; stroke-opacity: 0.3; stroke-width: 0.8; stroke-linecap: square"/>
     </g>
     <g id="line2d_47">
      <g>
       <use xlink:href="#m51634e80c7" x="45.716875" y="418.133333" style="stroke: #000000; stroke-width: 0.8"/>
      </g>
     </g>
     <g id="text_25">
      <!-- 0.4 -->
      <g transform="translate(22.81375 421.932552) scale(0.1 -0.1)">
       <use xlink:href="#DejaVuSans-30"/>
       <use xlink:href="#DejaVuSans-2e" transform="translate(63.623047 0)"/>
       <use xlink:href="#DejaVuSans-34" transform="translate(95.410156 0)"/>
      </g>
     </g>
    </g>
    <g id="ytick_11">
     <g id="line2d_48">
      <path d="M 45.716875 372.956667 
L 560.316875 372.956667 
" clip-path="url(#p56b384d110)" style="fill: none; stroke: #b0b0b0; stroke-opacity: 0.3; stroke-width: 0.8; stroke-linecap: square"/>
     </g>
     <g id="line2d_49">
      <g>
       <use xlink:href="#m51634e80c7" x="45.716875" y="372.956667" style="stroke: #000000; stroke-width: 0.8"/>
      </g>
     </g>
     <g id="text_26">
      <!-- 0.5 -->
      <g transform="translate(22.81375 376.755885) scale(0.1 -0.1)">
       <use xlink:href="#DejaVuSans-30"/>
       <use xlink:href="#DejaVuSans-2e" transform="translate(63.623047 0)"/>
       <use xlink:href="#DejaVuSans-35" transform="translate(95.410156 0)"/>
      </g>
     </g>
    </g>
    <g id="ytick_12">
     <g id="line2d_50">
      <path d="M 45.716875 327.78 
L 560.316875 327.78 
" clip-path="url(#p56b384d110)" style="fill: none; stroke: #b0b0b0; stroke-opacity: 0.3; stroke-width: 0.8; stroke-linecap: square"/>
     </g>
     <g id="line2d_51">
      <g>
       <use xlink:href="#m51634e80c7" x="45.716875" y="327.78" style="stroke: #000000; stroke-width: 0.8"/>
      </g>
     </g>
     <g id="text_27">
      <!-- 0.6 -->
      <g transform="translate(22.81375 331.579219) scale(0.1 -0.1)">
       <defs>
        <path id="DejaVuSans-36" d="M 2113 2584 
Q 1688 2584 1439 2293 
Q 1191 2003 1191 1497 
Q 1191 994 1439 701 
Q 1688 409 2113 409 
Q 2538 409 2786 701 
Q 3034 994 3034 1497 
Q 3034 2003 2786 2293 
Q 2538 2584 2113 2584 
z
M 3366 4563 
L 3366 3988 
Q 3128 4100 2886 4159 
Q 2644 4219 2406 4219 
Q 1781 4219 1451 3797 
Q 1122 3375 1075 2522 
Q 1259 2794 1537 2939 
Q 1816 3084 2150 3084 
Q 2853 3084 3261 2657 
Q 3669 2231 3669 1497 
Q 3669 778 3244 343 
Q 2819 -91 2113 -91 
Q 1303 -91 875 529 
Q 447 1150 447 2328 
Q 447 3434 972 4092 
Q 1497 4750 2381 4750 
Q 2619 4750 2861 4703 
Q 3103 4656 3366 4563 
z
" transform="scale(0.015625)"/>
       </defs>
       <use xlink:href="#DejaVuSans-30"/>
       <use xlink:href="#DejaVuSans-2e" transform="translate(63.623047 0)"/>
       <use xlink:href="#DejaVuSans-36" transform="translate(95.410156 0)"/>
      </g>
     </g>
    </g>
    <g id="text_28">
     <!-- Energy -->
     <g transform="translate(16.318125 484.3175) rotate(-90) scale(0.12 -0.12)">
      <defs>
       <path id="DejaVuSans-45" d="M 628 4666 
L 3578 4666 
L 3578 4134 
L 1259 4134 
L 1259 2753 
L 3481 2753 
L 3481 2222 
L 1259 2222 
L 1259 531 
L 3634 531 
L 3634 0 
L 628 0 
L 628 4666 
z
" transform="scale(0.015625)"/>
       <path id="DejaVuSans-65" d="M 3597 1894 
L 3597 1613 
L 953 1613 
Q 991 1019 1311 708 
Q 1631 397 2203 397 
Q 2534 397 2845 478 
Q 3156 559 3463 722 
L 3463 178 
Q 3153 47 2828 -22 
Q 2503 -91 2169 -91 
Q 1331 -91 842 396 
Q 353 884 353 1716 
Q 353 2575 817 3079 
Q 1281 3584 2069 3584 
Q 2775 3584 3186 3129 
Q 3597 2675 3597 1894 
z
M 3022 2063 
Q 3016 2534 2758 2815 
Q 2500 3097 2075 3097 
Q 1594 3097 1305 2825 
Q 1016 2553 972 2059 
L 3022 2063 
z
" transform="scale(0.015625)"/>
       <path id="DejaVuSans-72" d="M 2631 2963 
Q 2534 3019 2420 3045 
Q 2306 3072 2169 3072 
Q 1681 3072 1420 2755 
Q 1159 2438 1159 1844 
L 1159 0 
L 581 0 
L 581 3500 
L 1159 3500 
L 1159 2956 
Q 1341 3275 1631 3429 
Q 1922 3584 2338 3584 
Q 2397 3584 2469 3576 
Q 2541 3569 2628 3553 
L 2631 2963 
z
" transform="scale(0.015625)"/>
       <path id="DejaVuSans-67" d="M 2906 1791 
Q 2906 2416 2648 2759 
Q 2391 3103 1925 3103 
Q 1463 3103 1205 2759 
Q 947 2416 947 1791 
Q 947 1169 1205 825 
Q 1463 481 1925 481 
Q 2391 481 2648 825 
Q 2906 1169 2906 1791 
z
M 3481 434 
Q 3481 -459 3084 -895 
Q 2688 -1331 1869 -1331 
Q 1566 -1331 1297 -1286 
Q 1028 -1241 775 -1147 
L 775 -588 
Q 1028 -725 1275 -790 
Q 1522 -856 1778 -856 
Q 2344 -856 2625 -561 
Q 2906 -266 2906 331 
L 2906 616 
Q 2728 306 2450 153 
Q 2172 0 1784 0 
Q 1141 0 747 490 
Q 353 981 353 1791 
Q 353 2603 747 3093 
Q 1141 3584 1784 3584 
Q 2172 3584 2450 3431 
Q 2728 3278 2906 2969 
L 2906 3500 
L 3481 3500 
L 3481 434 
z
" transform="scale(0.015625)"/>
       <path id="DejaVuSans-79" d="M 2059 -325 
Q 1816 -950 1584 -1140 
Q 1353 -1331 966 -1331 
L 506 -1331 
L 506 -850 
L 844 -850 
Q 1081 -850 1212 -737 
Q 1344 -625 1503 -206 
L 1606 56 
L 191 3500 
L 800 3500 
L 1894 763 
L 2988 3500 
L 3597 3500 
L 2059 -325 
z
" transform="scale(0.015625)"/>
      </defs>
      <use xlink:href="#DejaVuSans-45"/>
      <use xlink:href="#DejaVuSans-6e" transform="translate(63.183594 0)"/>
      <use xlink:href="#DejaVuSans-65" transform="translate(126.5625 0)"/>
      <use xlink:href="#DejaVuSans-72" transform="translate(188.085938 0)"/>
      <use xlink:href="#DejaVuSans-67" transform="translate(227.449219 0)"/>
      <use xlink:href="#DejaVuSans-79" transform="translate(290.925781 0)"/>
     </g>
    </g>
   </g>
   <g id="line2d_52">
    <path d="M 69.107784 598.84 
L 71.458629 598.614891 
L 73.809474 597.94046 
L 76.160319 596.819397 
L 78.511165 595.25617 
L 80.86201 593.25701 
L 83.212855 590.829887 
L 85.5637 587.984476 
L 87.914545 584.73212 
L 90.26539 581.085784 
L 92.616235 577.060002 
L 94.967081 572.670823 
L 97.317926 567.935744 
L 99.668771 562.873639 
L 102.019616 557.504688 
L 106.721306 545.932995 
L 111.422997 533.404993 
L 116.124687 520.120243 
L 123.177222 499.2396 
L 137.282293 456.810425 
L 141.983983 443.295911 
L 146.685674 430.460023 
L 151.387364 418.507228 
L 153.738209 412.922124 
L 156.089054 407.627925 
L 158.439899 402.645734 
L 160.790744 397.995413 
L 163.141589 393.695499 
L 165.492435 389.763132 
L 167.84328 386.213988 
L 170.194125 383.062215 
L 172.54497 380.320378 
L 174.895815 377.999405 
L 177.24666 376.108548 
L 179.597505 374.655346 
L 181.948351 373.645592 
L 184.299196 373.083309 
L 186.650041 372.97074 
L 189.000886 373.308334 
L 191.351731 374.094745 
L 193.702576 375.326837 
L 196.053421 376.9997 
L 198.404267 379.106665 
L 200.755112 381.639333 
L 203.105957 384.587607 
L 205.456802 387.939736 
L 207.807647 391.682357 
L 210.158492 395.80055 
L 212.509337 400.2779 
L 214.860182 405.096557 
L 217.211028 410.237314 
L 221.912718 421.401955 
L 226.614408 433.593976 
L 231.316098 446.619168 
L 236.017789 460.27005 
L 245.421169 488.572581 
L 254.82455 516.705396 
L 259.52624 530.146665 
L 264.22793 542.88309 
L 268.929621 554.711788 
L 271.280466 560.22621 
L 273.631311 565.444338 
L 275.982156 570.345373 
L 278.333001 574.909777 
L 280.683846 579.119355 
L 283.034691 582.957327 
L 285.385536 586.408393 
L 287.736382 589.458797 
L 290.087227 592.096379 
L 292.438072 594.310624 
L 294.788917 596.092705 
L 297.139762 597.43552 
L 299.490607 598.333714 
L 301.841452 598.783709 
L 304.192298 598.783709 
L 306.543143 598.333714 
L 308.893988 597.43552 
L 311.244833 596.092705 
L 313.595678 594.310624 
L 315.946523 592.096379 
L 318.297368 589.458797 
L 320.648214 586.408393 
L 322.999059 582.957327 
L 325.349904 579.119355 
L 327.700749 574.909777 
L 330.051594 570.345373 
L 332.402439 565.444338 
L 334.753284 560.22621 
L 339.454975 548.923057 
L 344.156665 536.615965 
L 348.858355 523.500978 
L 353.560045 509.787008 
L 362.963426 481.441994 
L 370.015961 460.27005 
L 374.717652 446.619168 
L 379.419342 433.593976 
L 384.121032 421.401955 
L 388.822722 410.237314 
L 391.173568 405.096557 
L 393.524413 400.2779 
L 395.875258 395.80055 
L 398.226103 391.682357 
L 400.576948 387.939736 
L 402.927793 384.587607 
L 405.278638 381.639333 
L 407.629483 379.106665 
L 409.980329 376.9997 
L 412.331174 375.326837 
L 414.682019 374.094745 
L 417.032864 373.308334 
L 419.383709 372.97074 
L 421.734554 373.083309 
L 424.085399 373.645592 
L 426.436245 374.655346 
L 428.78709 376.108548 
L 431.137935 377.999405 
L 433.48878 380.320378 
L 435.839625 383.062215 
L 438.19047 386.213988 
L 440.541315 389.763132 
L 442.892161 393.695499 
L 445.243006 397.995413 
L 447.593851 402.645734 
L 449.944696 407.627925 
L 452.295541 412.922124 
L 456.997231 424.360973 
L 461.698922 436.780067 
L 466.400612 449.98158 
L 473.453147 470.788288 
L 489.909063 520.120243 
L 494.610753 533.404993 
L 499.312444 545.932995 
L 504.014134 557.504688 
L 506.364979 562.873639 
L 508.715824 567.935744 
L 511.066669 572.670823 
L 513.417515 577.060002 
L 515.76836 581.085784 
L 518.119205 584.73212 
L 520.47005 587.984476 
L 522.820895 590.829887 
L 525.17174 593.25701 
L 527.522585 595.25617 
L 529.873431 596.819397 
L 532.224276 597.94046 
L 534.575121 598.614891 
L 536.925966 598.84 
L 536.925966 598.84 
" clip-path="url(#p56b384d110)" style="fill: none; stroke: #0000ff; stroke-width: 2; stroke-linecap: square"/>
   </g>
   <g id="line2d_53">
    <path d="M 69.107784 372.956667 
L 71.458629 373.181776 
L 73.809474 373.856207 
L 76.160319 374.97727 
L 78.511165 376.540497 
L 80.86201 378.539657 
L 83.212855 380.96678 
L 85.5637 383.81219 
L 87.914545 387.064547 
L 90.26539 390.710883 
L 92.616235 394.736665 
L 94.967081 399.125844 
L 97.317926 403.860923 
L 99.668771 408.923028 
L 102.019616 414.291978 
L 106.721306 425.863672 
L 111.422997 438.391674 
L 116.124687 451.676423 
L 123.177222 472.557067 
L 137.282293 514.986242 
L 141.983983 528.500756 
L 146.685674 541.336643 
L 151.387364 553.289439 
L 153.738209 558.874543 
L 156.089054 564.168742 
L 158.439899 569.150932 
L 160.790744 573.801254 
L 163.141589 578.101168 
L 165.492435 582.033535 
L 167.84328 585.582679 
L 170.194125 588.734451 
L 172.54497 591.476289 
L 174.895815 593.797262 
L 177.24666 595.688118 
L 179.597505 597.14132 
L 181.948351 598.151075 
L 184.299196 598.713358 
L 186.650041 598.825926 
L 189.000886 598.488332 
L 191.351731 597.701922 
L 193.702576 596.469829 
L 196.053421 594.796966 
L 198.404267 592.690002 
L 200.755112 590.157334 
L 203.105957 587.209059 
L 205.456802 583.85693 
L 207.807647 580.11431 
L 210.158492 575.996116 
L 212.509337 571.518767 
L 214.860182 566.70011 
L 217.211028 561.559352 
L 221.912718 550.394712 
L 226.614408 538.202691 
L 231.316098 525.177498 
L 236.017789 511.526617 
L 245.421169 483.224085 
L 254.82455 455.091271 
L 259.52624 441.650002 
L 264.22793 428.913577 
L 268.929621 417.084878 
L 271.280466 411.570457 
L 273.631311 406.352329 
L 275.982156 401.451294 
L 278.333001 396.88689 
L 280.683846 392.677312 
L 283.034691 388.83934 
L 285.385536 385.388273 
L 287.736382 382.337869 
L 290.087227 379.700288 
L 292.438072 377.486043 
L 294.788917 375.703961 
L 297.139762 374.361147 
L 299.490607 373.462952 
L 301.841452 373.012958 
L 304.192298 373.012958 
L 306.543143 373.462952 
L 308.893988 374.361147 
L 311.244833 375.703961 
L 313.595678 377.486043 
L 315.946523 379.700288 
L 318.297368 382.337869 
L 320.648214 385.388273 
L 322.999059 388.83934 
L 325.349904 392.677312 
L 327.700749 396.88689 
L 330.051594 401.451294 
L 332.402439 406.352329 
L 334.753284 411.570457 
L 339.454975 422.87361 
L 344.156665 435.180702 
L 348.858355 448.295689 
L 353.560045 462.009659 
L 362.963426 490.354673 
L 370.015961 511.526617 
L 374.717652 525.177498 
L 379.419342 538.202691 
L 384.121032 550.394712 
L 388.822722 561.559352 
L 391.173568 566.70011 
L 393.524413 571.518767 
L 395.875258 575.996116 
L 398.226103 580.11431 
L 400.576948 583.85693 
L 402.927793 587.209059 
L 405.278638 590.157334 
L 407.629483 592.690002 
L 409.980329 594.796966 
L 412.331174 596.469829 
L 414.682019 597.701922 
L 417.032864 598.488332 
L 419.383709 598.825926 
L 421.734554 598.713358 
L 424.085399 598.151075 
L 426.436245 597.14132 
L 428.78709 595.688118 
L 431.137935 593.797262 
L 433.48878 591.476289 
L 435.839625 588.734451 
L 438.19047 585.582679 
L 440.541315 582.033535 
L 442.892161 578.101168 
L 445.243006 573.801254 
L 447.593851 569.150932 
L 449.944696 564.168742 
L 452.295541 558.874543 
L 456.997231 547.435694 
L 461.698922 535.0166 
L 466.400612 521.815086 
L 473.453147 501.008379 
L 489.909063 451.676423 
L 494.610753 438.391674 
L 499.312444 425.863672 
L 504.014134 414.291978 
L 506.364979 408.923028 
L 508.715824 403.860923 
L 511.066669 399.125844 
L 513.417515 394.736665 
L 515.76836 390.710883 
L 518.119205 387.064547 
L 520.47005 383.81219 
L 522.820895 380.96678 
L 525.17174 378.539657 
L 527.522585 376.540497 
L 529.873431 374.97727 
L 532.224276 373.856207 
L 534.575121 373.181776 
L 536.925966 372.956667 
L 536.925966 372.956667 
" clip-path="url(#p56b384d110)" style="fill: none; stroke: #ff0000; stroke-width: 2; stroke-linecap: square"/>
   </g>
   <g id="line2d_54">
    <path d="M 69.107784 372.956667 
L 536.925966 372.956667 
L 536.925966 372.956667 
" clip-path="url(#p56b384d110)" style="fill: none; stroke-dasharray: 7.4,3.2; stroke-dashoffset: 0; stroke: #000000; stroke-width: 2"/>
   </g>
   <g id="patch_9">
    <path d="M 45.716875 598.84 
L 45.716875 327.78 
" style="fill: none; stroke: #000000; stroke-width: 0.8; stroke-linejoin: miter; stroke-linecap: square"/>
   </g>
   <g id="patch_10">
    <path d="M 560.316875 598.84 
L 560.316875 327.78 
" style="fill: none; stroke: #000000; stroke-width: 0.8; stroke-linejoin: miter; stroke-linecap: square"/>
   </g>
   <g id="patch_11">
    <path d="M 45.716875 598.84 
L 560.316875 598.84 
" style="fill: none; stroke: #000000; stroke-width: 0.8; stroke-linejoin: miter; stroke-linecap: square"/>
   </g>
   <g id="patch_12">
    <path d="M 45.716875 327.78 
L 560.316875 327.78 
" style="fill: none; stroke: #000000; stroke-width: 0.8; stroke-linejoin: miter; stroke-linecap: square"/>
   </g>
   <g id="legend_2">
    <g id="patch_13">
     <path d="M 387.756875 390.3 
L 551.916875 390.3 
Q 554.316875 390.3 554.316875 387.9 
L 554.316875 336.18 
Q 554.316875 333.78 551.916875 333.78 
L 387.756875 333.78 
Q 385.356875 333.78 385.356875 336.18 
L 385.356875 387.9 
Q 385.356875 390.3 387.756875 390.3 
z
" style="fill: #ffffff; opacity: 0.8; stroke: #cccccc; stroke-linejoin: miter"/>
    </g>
    <g id="line2d_55">
     <path d="M 390.156875 343.5 
L 402.156875 343.5 
L 414.156875 343.5 
" style="fill: none; stroke: #0000ff; stroke-width: 2; stroke-linecap: square"/>
    </g>
    <g id="text_29">
     <!-- Kinetic Energy $K(t)$ -->
     <g transform="translate(423.756875 347.7) scale(0.12 -0.12)">
      <defs>
       <path id="DejaVuSans-4b" d="M 628 4666 
L 1259 4666 
L 1259 2694 
L 3353 4666 
L 4166 4666 
L 1850 2491 
L 4331 0 
L 3500 0 
L 1259 2247 
L 1259 0 
L 628 0 
L 628 4666 
z
" transform="scale(0.015625)"/>
       <path id="DejaVuSans-74" d="M 1172 4494 
L 1172 3500 
L 2356 3500 
L 2356 3053 
L 1172 3053 
L 1172 1153 
Q 1172 725 1289 603 
Q 1406 481 1766 481 
L 2356 481 
L 2356 0 
L 1766 0 
Q 1100 0 847 248 
Q 594 497 594 1153 
L 594 3053 
L 172 3053 
L 172 3500 
L 594 3500 
L 594 4494 
L 1172 4494 
z
" transform="scale(0.015625)"/>
       <path id="DejaVuSans-20" transform="scale(0.015625)"/>
       <path id="DejaVuSans-Oblique-4b" d="M 1081 4666 
L 1716 4666 
L 1331 2700 
L 3781 4666 
L 4622 4666 
L 1850 2438 
L 3878 0 
L 3109 0 
L 1247 2272 
L 806 0 
L 172 0 
L 1081 4666 
z
" transform="scale(0.015625)"/>
      </defs>
      <use xlink:href="#DejaVuSans-4b" transform="translate(0 0.015625)"/>
      <use xlink:href="#DejaVuSans-69" transform="translate(65.576172 0.015625)"/>
      <use xlink:href="#DejaVuSans-6e" transform="translate(93.359375 0.015625)"/>
      <use xlink:href="#DejaVuSans-65" transform="translate(156.738281 0.015625)"/>
      <use xlink:href="#DejaVuSans-74" transform="translate(218.261719 0.015625)"/>
      <use xlink:href="#DejaVuSans-69" transform="translate(257.470703 0.015625)"/>
      <use xlink:href="#DejaVuSans-63" transform="translate(285.253906 0.015625)"/>
      <use xlink:href="#DejaVuSans-20" transform="translate(340.234375 0.015625)"/>
      <use xlink:href="#DejaVuSans-45" transform="translate(372.021484 0.015625)"/>
      <use xlink:href="#DejaVuSans-6e" transform="translate(435.205078 0.015625)"/>
      <use xlink:href="#DejaVuSans-65" transform="translate(498.583984 0.015625)"/>
      <use xlink:href="#DejaVuSans-72" transform="translate(560.107422 0.015625)"/>
      <use xlink:href="#DejaVuSans-67" transform="translate(601.220703 0.015625)"/>
      <use xlink:href="#DejaVuSans-79" transform="translate(664.697266 0.015625)"/>
      <use xlink:href="#DejaVuSans-20" transform="translate(723.876953 0.015625)"/>
      <use xlink:href="#DejaVuSans-Oblique-4b" transform="translate(755.664062 0.015625)"/>
      <use xlink:href="#DejaVuSans-28" transform="translate(821.240234 0.015625)"/>
      <use xlink:href="#DejaVuSans-Oblique-74" transform="translate(860.253906 0.015625)"/>
      <use xlink:href="#DejaVuSans-29" transform="translate(899.462891 0.015625)"/>
     </g>
    </g>
    <g id="line2d_56">
     <path d="M 390.156875 361.14 
L 402.156875 361.14 
L 414.156875 361.14 
" style="fill: none; stroke: #ff0000; stroke-width: 2; stroke-linecap: square"/>
    </g>
    <g id="text_30">
     <!-- Potential Energy $U(t)$ -->
     <g transform="translate(423.756875 365.34) scale(0.12 -0.12)">
      <defs>
       <path id="DejaVuSans-50" d="M 1259 4147 
L 1259 2394 
L 2053 2394 
Q 2494 2394 2734 2622 
Q 2975 2850 2975 3272 
Q 2975 3691 2734 3919 
Q 2494 4147 2053 4147 
L 1259 4147 
z
M 628 4666 
L 2053 4666 
Q 2838 4666 3239 4311 
Q 3641 3956 3641 3272 
Q 3641 2581 3239 2228 
Q 2838 1875 2053 1875 
L 1259 1875 
L 1259 0 
L 628 0 
L 628 4666 
z
" transform="scale(0.015625)"/>
       <path id="DejaVuSans-61" d="M 2194 1759 
Q 1497 1759 1228 1600 
Q 959 1441 959 1056 
Q 959 750 1161 570 
Q 1363 391 1709 391 
Q 2188 391 2477 730 
Q 2766 1069 2766 1631 
L 2766 1759 
L 2194 1759 
z
M 3341 1997 
L 3341 0 
L 2766 0 
L 2766 531 
Q 2569 213 2275 61 
Q 1981 -91 1556 -91 
Q 1019 -91 701 211 
Q 384 513 384 1019 
Q 384 1609 779 1909 
Q 1175 2209 1959 2209 
L 2766 2209 
L 2766 2266 
Q 2766 2663 2505 2880 
Q 2244 3097 1772 3097 
Q 1472 3097 1187 3025 
Q 903 2953 641 2809 
L 641 3341 
Q 956 3463 1253 3523 
Q 1550 3584 1831 3584 
Q 2591 3584 2966 3190 
Q 3341 2797 3341 1997 
z
" transform="scale(0.015625)"/>
       <path id="DejaVuSans-6c" d="M 603 4863 
L 1178 4863 
L 1178 0 
L 603 0 
L 603 4863 
z
" transform="scale(0.015625)"/>
       <path id="DejaVuSans-Oblique-55" d="M 991 4666 
L 1625 4666 
L 1075 1831 
Q 1041 1641 1027 1517 
Q 1013 1394 1013 1300 
Q 1013 869 1253 645 
Q 1494 422 1959 422 
Q 2563 422 2898 753 
Q 3234 1084 3378 1831 
L 3928 4666 
L 4563 4666 
L 4000 1753 
Q 3816 809 3300 359 
Q 2784 -91 1888 -91 
Q 1188 -91 780 261 
Q 372 613 372 1216 
Q 372 1325 387 1461 
Q 403 1597 434 1753 
L 991 4666 
z
" transform="scale(0.015625)"/>
      </defs>
      <use xlink:href="#DejaVuSans-50" transform="translate(0 0.015625)"/>
      <use xlink:href="#DejaVuSans-6f" transform="translate(60.302734 0.015625)"/>
      <use xlink:href="#DejaVuSans-74" transform="translate(121.484375 0.015625)"/>
      <use xlink:href="#DejaVuSans-65" transform="translate(160.693359 0.015625)"/>
      <use xlink:href="#DejaVuSans-6e" transform="translate(222.216797 0.015625)"/>
      <use xlink:href="#DejaVuSans-74" transform="translate(285.595703 0.015625)"/>
      <use xlink:href="#DejaVuSans-69" transform="translate(324.804688 0.015625)"/>
      <use xlink:href="#DejaVuSans-61" transform="translate(352.587891 0.015625)"/>
      <use xlink:href="#DejaVuSans-6c" transform="translate(413.867188 0.015625)"/>
      <use xlink:href="#DejaVuSans-20" transform="translate(441.650391 0.015625)"/>
      <use xlink:href="#DejaVuSans-45" transform="translate(473.4375 0.015625)"/>
      <use xlink:href="#DejaVuSans-6e" transform="translate(536.621094 0.015625)"/>
      <use xlink:href="#DejaVuSans-65" transform="translate(600 0.015625)"/>
      <use xlink:href="#DejaVuSans-72" transform="translate(661.523438 0.015625)"/>
      <use xlink:href="#DejaVuSans-67" transform="translate(702.636719 0.015625)"/>
      <use xlink:href="#DejaVuSans-79" transform="translate(766.113281 0.015625)"/>
      <use xlink:href="#DejaVuSans-20" transform="translate(825.292969 0.015625)"/>
      <use xlink:href="#DejaVuSans-Oblique-55" transform="translate(857.080078 0.015625)"/>
      <use xlink:href="#DejaVuSans-28" transform="translate(930.273438 0.015625)"/>
      <use xlink:href="#DejaVuSans-Oblique-74" transform="translate(969.287109 0.015625)"/>
      <use xlink:href="#DejaVuSans-29" transform="translate(1008.496094 0.015625)"/>
     </g>
    </g>
    <g id="line2d_57">
     <path d="M 390.156875 378.78 
L 402.156875 378.78 
L 414.156875 378.78 
" style="fill: none; stroke-dasharray: 7.4,3.2; stroke-dashoffset: 0; stroke: #000000; stroke-width: 2"/>
    </g>
    <g id="text_31">
     <!-- Total Energy $E$ -->
     <g transform="translate(423.756875 382.98) scale(0.12 -0.12)">
      <defs>
       <path id="DejaVuSans-54" d="M -19 4666 
L 3928 4666 
L 3928 4134 
L 2272 4134 
L 2272 0 
L 1638 0 
L 1638 4134 
L -19 4134 
L -19 4666 
z
" transform="scale(0.015625)"/>
       <path id="DejaVuSans-Oblique-45" d="M 1081 4666 
L 4031 4666 
L 3928 4134 
L 1606 4134 
L 1338 2753 
L 3566 2753 
L 3463 2222 
L 1234 2222 
L 909 531 
L 3284 531 
L 3181 0 
L 172 0 
L 1081 4666 
z
" transform="scale(0.015625)"/>
      </defs>
      <use xlink:href="#DejaVuSans-54" transform="translate(0 0.015625)"/>
      <use xlink:href="#DejaVuSans-6f" transform="translate(61.083984 0.015625)"/>
      <use xlink:href="#DejaVuSans-74" transform="translate(122.265625 0.015625)"/>
      <use xlink:href="#DejaVuSans-61" transform="translate(161.474609 0.015625)"/>
      <use xlink:href="#DejaVuSans-6c" transform="translate(222.753906 0.015625)"/>
      <use xlink:href="#DejaVuSans-20" transform="translate(250.537109 0.015625)"/>
      <use xlink:href="#DejaVuSans-45" transform="translate(282.324219 0.015625)"/>
      <use xlink:href="#DejaVuSans-6e" transform="translate(345.507812 0.015625)"/>
      <use xlink:href="#DejaVuSans-65" transform="translate(408.886719 0.015625)"/>
      <use xlink:href="#DejaVuSans-72" transform="translate(470.410156 0.015625)"/>
      <use xlink:href="#DejaVuSans-67" transform="translate(511.523438 0.015625)"/>
      <use xlink:href="#DejaVuSans-79" transform="translate(575 0.015625)"/>
      <use xlink:href="#DejaVuSans-20" transform="translate(634.179688 0.015625)"/>
      <use xlink:href="#DejaVuSans-Oblique-45" transform="translate(665.966797 0.015625)"/>
     </g>
    </g>
   </g>
  </g>
 </g>
 <defs>
  <clipPath id="pe5d993ed63">
   <rect x="45.716875" y="7.2" width="514.6" height="271.06"/>
  </clipPath>
  <clipPath id="p56b384d110">
   <rect x="45.716875" y="327.78" width="514.6" height="271.06"/>
  </clipPath>
 </defs>
</svg>
