<?xml version="1.0" encoding="UTF-8"?>
<svg width="600" height="400" xmlns="http://www.w3.org/2000/svg">
  <defs>
    <style>
      .axis { stroke: #333; stroke-width: 1; }
      .grid { stroke: #ccc; stroke-width: 0.5; stroke-dasharray: 2 2; }
      .k { stroke: #3498db; stroke-width: 3; fill: none; }
      .u { stroke: #e74c3c; stroke-width: 3; fill: none; }
      .e { stroke: #2ecc71; stroke-width: 3; fill: none; }
      text { font-family: Arial, sans-serif; fill: #2c3e50; font-size: 14px; }
      .title-text { font-size: 16px; font-weight: bold; }
    </style>
  </defs>
  
  <rect width="600" height="400" fill="#ffffff"/>
  <text x="300" y="30" text-anchor="middle" class="title-text">Energy in Simple Harmonic Motion: K(x), U(x), E</text>
  
  <g transform="translate(50, 50)">
    <line class="axis" x1="0" y1="150" x2="500" y2="150"/>
    <line class="axis" x1="0" y1="0" x2="0" y2="300"/>
    
    <line class="grid" x1="125" y1="0" x2="125" y2="300"/>
    <line class="grid" x1="250" y1="0" x2="250" y2="300"/>
    <line class="grid" x1="375" y1="0" x2="375" y2="300"/>
    <line class="grid" x1="0" y1="75" x2="500" y2="75"/>
    <line class="grid" x1="0" y1="225" x2="500" y2="225"/>
    
    <text x="-15" y="155" text-anchor="end" alignment-baseline="middle">0</text>
    <text x="-30" y="75" text-anchor="end" alignment-baseline="middle">½kA²</text>
    <text x="-25" y="225" text-anchor="end" alignment-baseline="middle">-½kA²</text>
    <text x="125" y="325" text-anchor="middle">-A</text>
    <text x="250" y="325" text-anchor="middle">0</text>
    <text x="375" y="325" text-anchor="middle">+A</text>
    <text x="250" y="355" text-anchor="middle">x</text>
    
    <!-- U(x) = ½kx² = (½kA²)(x/A)² -->
    <path class="u" d="M 0 150 
             C 125 150, 125 75, 250 150 
             C 375 225, 375 150, 500 150 Z"/>
    <!-- K(x) = ½k(A² - x²) -->
    <path class="k" d="M 0 150 
             C 125 150, 125 225, 250 150 
             C 375 75, 375 150, 500 150 Z"/>
    <!-- Total E = ½kA² -->
    <line class="e" x1="0" y1="75" x2="500" y2="75"/>
  </g>
  
  <!-- Legend -->
  <text x="100" y="380" fill="#3498db">■ Kinetic Energy K(x)</text>
  <text x="250" y="380" fill="#e74c3c">■ Potential Energy U(x)</text>
  <text x="400" y="380" fill="#2ecc71">■ Total Energy E</text>
  
</svg>
